<svg enable-background="new 0 0 24 24" height="512" viewBox="0 0 24 24" width="512"
    xmlns="http://www.w3.org/2000/svg">
    <g id="color_1_">
        <g>
            <path d="m21.25 3h-18.5c-1.517 0-2.75 1.233-2.75 2.75v12.5c0 1.517 1.233 2.75 2.75 2.75h18.5c1.517 0 2.75-1.233 2.75-2.75v-12.5c0-1.517-1.233-2.75-2.75-2.75z" fill="#eceff1"/>
        </g>
    </g>
    <g id="regular_1.5">
        <g>
            <path d="m21.25 21h-18.5c-1.517 0-2.75-1.233-2.75-2.75v-12.5c0-1.517 1.233-2.75 2.75-2.75h18.5c1.517 0 2.75 1.233 2.75 2.75v12.5c0 1.517-1.233 2.75-2.75 2.75zm-18.5-16.5c-.689 0-1.25.561-1.25 1.25v12.5c0 .689.561 1.25 1.25 1.25h18.5c.689 0 1.25-.561 1.25-1.25v-12.5c0-.689-.561-1.25-1.25-1.25z"/>
        </g>
        <g>
            <path d="m18.25 16h-1.5c-.965 0-1.75-.785-1.75-1.75v-4.5c0-.965.785-1.75 1.75-1.75h1.5c.965 0 1.75.785 1.75 1.75v4.5c0 .965-.785 1.75-1.75 1.75zm-1.5-6.5c-.138 0-.25.112-.25.25v4.5c0 .138.112.25.25.25h1.5c.138 0 .25-.112.25-.25v-4.5c0-.138-.112-.25-.25-.25z"/>
        </g>
        <g>
            <path d="m5.5 16c-.414 0-.75-.336-.75-.75v-6.5c0-.414.336-.75.75-.75s.75.336.75.75v6.5c0 .414-.336.75-.75.75z"/>
        </g>
        <g>
            <path d="m10.5 16h-1.75c-.414 0-.75-.336-.75-.75s.336-.75.75-.75h1.75c.551 0 1-.448 1-1 0-.696-.766-.75-1-.75-1.472 0-2.5-.925-2.5-2.25 0-1.379 1.122-2.5 2.5-2.5h1.75c.414 0 .75.336.75.75s-.336.75-.75.75h-1.75c-.551 0-1 .448-1 1 0 .696.766.75 1 .75 1.472 0 2.5.925 2.5 2.25 0 1.379-1.122 2.5-2.5 2.5z"/>
        </g>
    </g>
</svg>