<?xml version="1.0" encoding="iso-8859-1"?>
<!-- Courtesy by https://www.flaticon.es/autores/prettycons-->
<!-- Generator: Adobe Illustrator 22.0.0, SVG Export Plug-In . SVG Version: 6.00 Build 0)  -->
<svg xmlns="http://www.w3.org/2000/svg"
	xmlns:xlink="http://www.w3.org/1999/xlink" version="1.1" x="0px" y="0px" viewBox="0 0 58 58" style="enable-background:new 0 0 58 58;" xml:space="preserve" width="512" height="512">
	<g id="_x32_2-Timelapse">
		<path d="M30,28c-0.552,0-1-0.448-1-1V7c0-0.552,0.448-1,1-1s1,0.448,1,1v20C31,27.552,30.552,28,30,28z"/>
		<path d="M42,30H32c-0.552,0-1-0.448-1-1s0.448-1,1-1h10c0.552,0,1,0.448,1,1S42.552,30,42,30z"/>
		<g>
			<path d="M12.923,8.291c-0.306,0-0.608-0.14-0.804-0.405c-0.329-0.444-0.235-1.07,0.208-1.399C17.174,2.897,22.926,1,28.961,1    C34.464,1,39.931,2.584,44,5.302V1c0-0.552,0.448-1,1-1s1,0.448,1,1v6.291c0,0.388-0.224,0.741-0.575,0.905    c-0.351,0.165-0.765,0.112-1.064-0.136C40.547,4.892,34.79,3,28.961,3c-5.603,0-10.944,1.762-15.444,5.095    C13.339,8.227,13.13,8.291,12.923,8.291z"/>
			<path d="M7.292,46.078c-0.306,0-0.608-0.14-0.804-0.405C2.897,40.826,1,35.074,1,29.039C1,23.536,2.584,18.069,5.302,14H1    c-0.552,0-1-0.448-1-1s0.448-1,1-1h6.291c0.388,0,0.74,0.224,0.905,0.575s0.112,0.766-0.136,1.064C4.892,17.453,3,23.209,3,29.039    c0,5.603,1.762,10.943,5.095,15.443c0.329,0.444,0.235,1.07-0.208,1.399C7.707,46.014,7.499,46.078,7.292,46.078z"/>
			<path d="M13,58c-0.552,0-1-0.448-1-1v-6.291c0-0.388,0.224-0.741,0.575-0.905c0.352-0.165,0.766-0.112,1.064,0.136    c3.814,3.168,9.571,5.06,15.4,5.06c5.603,0,10.944-1.762,15.444-5.095c0.444-0.328,1.07-0.235,1.399,0.208    c0.329,0.444,0.235,1.07-0.208,1.399C40.826,55.103,35.074,57,29.039,57c-5.503,0-10.97-1.584-15.039-4.302V57    C14,57.552,13.552,58,13,58z"/>
			<path d="M57,46h-6.291c-0.388,0-0.74-0.224-0.905-0.575s-0.112-0.766,0.136-1.064c3.168-3.813,5.06-9.57,5.06-15.4    c0-5.603-1.762-10.943-5.095-15.443c-0.329-0.444-0.235-1.07,0.208-1.399c0.444-0.328,1.071-0.235,1.399,0.208    C55.103,17.174,57,22.926,57,28.961c0,5.503-1.584,10.97-4.302,15.039H57c0.552,0,1,0.448,1,1S57.552,46,57,46z"/>
		</g>
		<g>
			<path d="M7,30c-0.552,0-1-0.448-1-1c0-0.35,0.008-0.698,0.023-1.044c0.024-0.552,0.482-0.987,1.043-0.955    c0.552,0.024,0.979,0.491,0.955,1.043C8.007,28.361,8,28.68,8,29C8,29.552,7.552,30,7,30z"/>
			<path d="M7.462,25.499c-0.067,0-0.136-0.007-0.205-0.021c-0.541-0.112-0.888-0.642-0.775-1.183    c0.124-0.598,0.275-1.201,0.448-1.79c0.156-0.53,0.711-0.836,1.241-0.678c0.53,0.156,0.833,0.711,0.678,1.241    c-0.158,0.538-0.296,1.088-0.409,1.634C8.342,25.174,7.926,25.499,7.462,25.499z M9.153,20.495c-0.145,0-0.292-0.031-0.432-0.099    c-0.498-0.239-0.708-0.836-0.469-1.334c0.265-0.553,0.556-1.102,0.865-1.63c0.279-0.477,0.891-0.637,1.368-0.36    c0.477,0.278,0.638,0.891,0.36,1.368c-0.281,0.482-0.547,0.982-0.789,1.487C9.884,20.286,9.526,20.495,9.153,20.495z     M11.994,16.042c-0.224,0-0.448-0.075-0.635-0.228c-0.427-0.351-0.488-0.981-0.137-1.408c0.389-0.473,0.802-0.936,1.227-1.376    c0.384-0.397,1.017-0.407,1.414-0.025c0.397,0.384,0.409,1.017,0.025,1.414c-0.389,0.403-0.766,0.826-1.121,1.258    C12.569,15.917,12.282,16.042,11.994,16.042z"/>
			<path d="M15.821,12.384c-0.304,0-0.604-0.138-0.801-0.4c-0.331-0.442-0.242-1.069,0.2-1.4c0.278-0.208,0.562-0.411,0.85-0.607    c0.457-0.311,1.078-0.192,1.39,0.263c0.311,0.456,0.194,1.079-0.263,1.39c-0.263,0.18-0.522,0.365-0.777,0.556    C16.24,12.319,16.029,12.384,15.821,12.384z"/>
		</g>
		<g>
			<path d="M12,30c-0.552,0-1-0.448-1-1c0-0.355,0.01-0.708,0.031-1.058c0.032-0.552,0.511-0.972,1.056-0.94    c0.552,0.032,0.972,0.505,0.94,1.057C13.009,28.37,13,28.684,13,29C13,29.552,12.552,30,12,30z"/>
			<path d="M12.607,25.492c-0.088,0-0.177-0.012-0.266-0.037c-0.532-0.146-0.845-0.697-0.698-1.229    c0.166-0.603,0.366-1.205,0.596-1.788c0.202-0.514,0.781-0.768,1.296-0.565c0.514,0.202,0.767,0.782,0.565,1.296    c-0.203,0.518-0.381,1.052-0.529,1.587C13.448,25.2,13.046,25.492,12.607,25.492z M14.807,20.651    c-0.189,0-0.381-0.054-0.551-0.166c-0.461-0.304-0.587-0.925-0.283-1.385c0.345-0.522,0.721-1.032,1.118-1.515    c0.351-0.426,0.981-0.487,1.408-0.137c0.427,0.351,0.488,0.981,0.137,1.408c-0.353,0.429-0.688,0.883-0.995,1.347    C15.449,20.493,15.131,20.651,14.807,20.651z"/>
			<path d="M18.398,16.721c-0.293,0-0.584-0.128-0.781-0.375c-0.345-0.431-0.275-1.061,0.156-1.405    c0.275-0.22,0.557-0.433,0.845-0.637c0.451-0.319,1.075-0.213,1.394,0.238c0.319,0.451,0.213,1.075-0.238,1.394    c-0.256,0.182-0.507,0.371-0.752,0.566C18.838,16.649,18.617,16.721,18.398,16.721z"/>
		</g>
		<g>
			<path d="M17,30c-0.552,0-1-0.448-1-1c0-0.364,0.015-0.725,0.045-1.082c0.045-0.551,0.528-0.963,1.079-0.914    c0.55,0.046,0.959,0.529,0.914,1.079C18.013,28.385,18,28.691,18,29C18,29.552,17.552,30,17,30z"/>
			<path d="M17.856,25.548c-0.124,0-0.25-0.023-0.372-0.072c-0.512-0.206-0.761-0.788-0.556-1.3c0.239-0.594,0.523-1.176,0.847-1.729    c0.279-0.477,0.891-0.638,1.368-0.357c0.476,0.279,0.636,0.892,0.357,1.368c-0.274,0.468-0.515,0.959-0.717,1.462    C18.628,25.31,18.253,25.548,17.856,25.548z"/>
			<path d="M20.861,21.19c-0.269,0-0.538-0.108-0.735-0.321c-0.375-0.406-0.35-1.038,0.056-1.413c0.265-0.245,0.54-0.478,0.824-0.701    c0.435-0.34,1.063-0.263,1.404,0.171c0.34,0.435,0.264,1.063-0.171,1.404c-0.241,0.188-0.474,0.387-0.699,0.594    C21.347,21.102,21.103,21.19,20.861,21.19z"/>
		</g>
		<g>
			<path d="M22,30c-0.552,0-1-0.448-1-1c0-0.382,0.027-0.765,0.081-1.14c0.078-0.547,0.583-0.926,1.132-0.848    c0.547,0.079,0.926,0.585,0.847,1.132C23.021,28.425,23,28.713,23,29C23,29.552,22.552,30,22,30z"/>
			<path d="M23.642,25.5c-0.227,0-0.456-0.077-0.643-0.235c-0.423-0.355-0.477-0.986-0.121-1.409c0.242-0.289,0.51-0.564,0.794-0.818    c0.411-0.37,1.043-0.335,1.412,0.077c0.368,0.412,0.334,1.044-0.078,1.412c-0.215,0.192-0.416,0.4-0.598,0.616    C24.21,25.378,23.927,25.5,23.642,25.5z"/>
		</g>
		<path d="M16.634,11.802c-0.32,0-0.634-0.153-0.828-0.437c-0.311-0.457-0.193-1.079,0.264-1.39c2.917-1.986,6.304-3.288,9.795-3.764   c0.547-0.076,1.052,0.308,1.126,0.855c0.075,0.547-0.308,1.051-0.856,1.126c-3.185,0.434-6.277,1.622-8.94,3.436   C17.024,11.746,16.828,11.802,16.634,11.802z"/>
		<path d="M19.197,16.119c-0.313,0-0.622-0.147-0.817-0.422c-0.319-0.451-0.213-1.075,0.238-1.394   c2.173-1.54,4.598-2.557,7.207-3.022c0.545-0.096,1.063,0.265,1.16,0.809c0.097,0.543-0.265,1.063-0.809,1.16   c-2.317,0.414-4.471,1.317-6.402,2.686C19.598,16.06,19.396,16.119,19.197,16.119z"/>
		<path d="M21.623,20.542c-0.297,0-0.591-0.132-0.789-0.384c-0.34-0.435-0.263-1.063,0.172-1.403   c1.417-1.108,3.013-1.896,4.744-2.344c0.535-0.136,1.08,0.184,1.219,0.718c0.138,0.535-0.183,1.08-0.718,1.218   c-1.463,0.378-2.813,1.045-4.012,1.982C22.055,20.473,21.838,20.542,21.623,20.542z"/>
		<path d="M24.339,24.782c-0.275,0-0.548-0.112-0.746-0.333c-0.368-0.412-0.333-1.044,0.079-1.412   c0.874-0.782,1.926-1.371,3.043-1.704c0.529-0.159,1.086,0.143,1.244,0.673c0.158,0.529-0.143,1.086-0.672,1.244   c-0.836,0.249-1.625,0.691-2.281,1.278C24.814,24.698,24.576,24.782,24.339,24.782z"/>
		<path d="M32,32h-4c-0.552,0-1-0.448-1-1v-4c0-0.552,0.448-1,1-1h4c0.552,0,1,0.448,1,1v4C33,31.552,32.552,32,32,32z M29,30h2v-2   h-2V30z"/>
	</g>

</svg>
